# xmcd
#
# Track frame offsets:
# 150
# 6592
# 7805
# 25054
# 42303
# 55877
# 69450
# 85724
# 101998
# 115796
# 129593
# 144307
# 159020
# 171995
# 184970
# 201619
# 218269
# 232967
# 247889
# 261163
# 274436
# 289284
# 304283
# 309121
# 321795
# 328735
# 356797
#
# Disc length: 4778 seconds
#
#
# Revision: 0
# Processed by: cddbd v1.5.2PL0 Copyright (c) Steve Scherf et al.
# Submitted via: FreeRIP 2.96 
#
DISCID=8812a81b
DTITLE=Jörg Sieghart - Playalongs für Bassisten Vol.1 - Blues
DYEAR=2006
DGENRE=Blues
TTITLE0=Trailer Playalongs für Bassisten Vol.1 - Blues
TTITLE1=Stimmtöne
TTITLE2=Vollversion von PB 1
TTITLE3=PB 1 (midtempo) 81 BPM (12/8)
TTITLE4=Vollversion von PB 2
TTITLE5=PB 2 (Lousiana-Groove) 100 BPM (4/4)
TTITLE6=Vollversion von PB 3
TTITLE7=PB 3 (midtempo) 106 BPM (12/8)
TTITLE8=Vollversion von PB 4
TTITLE9=PB 4 (slow Blues) 50 BPM (6/8)
TTITLE10=Vollversion von PB 5
TTITLE11=PB 5 (midtempo) 96 BPM (4/4)
TTITLE12=Vollversion von PB 6
TTITLE13=PB 6 (slow Rock) 70 BPM (4/4)
TTITLE14=Vollversion von PB 7
TTITLE15=PB 7 (fast Shuffle) 148 BPM (4/4)
TTITLE16=Vollversion von PB 8
TTITLE17=PB 8 (slow Blues) 70 BPM (12/8)
TTITLE18=Vollversion von PB 9
TTITLE19=PB 9 (midtempo) 81 BPM (12/8)
TTITLE20=Vollversion von PB 10
TTITLE21=PB 10 (New Orleans Groove) 91 BPM (4/4)
TTITLE22=Vollversion zu Bonustrack PB "Sons and Lovers"
TTITLE23=Bonustrack PB "Sons and Lovers" (gekürzt)
TTITLE24=Vollversion zu Bonustrack PB "Testify" Acoustic-Mix (gekürzt)
TTITLE25=Bonustrack PB "Testify" (Acoustic Mix) featuring Patrick Quintin (Gesang)
TTITLE26=Datentrack mit Noten (Basslinien) and Leadsheets (Akkorde) als PDF-Dateien
EXTD=mehr Infos: www.tunesdayrecords.de
EXTT0=
EXTT1=
EXTT2=
EXTT3=
EXTT4=
EXTT5=
EXTT6=
EXTT7=
EXTT8=
EXTT9=
EXTT10=
EXTT11=
EXTT12=
EXTT13=
EXTT14=
EXTT15=
EXTT16=
EXTT17=
EXTT18=
EXTT19=
EXTT20=
EXTT21=
EXTT22=
EXTT23=
EXTT24=
EXTT25=
EXTT26=
PLAYORDER=
